<svg width="512" height="512" viewBox="0 0 512 512" fill="none" xmlns="http://www.w3.org/2000/svg">
  <rect width="512" height="512" rx="128" fill="#0F1726"/>
  <circle cx="256" cy="256" r="214" fill="url(#bg)"/>
  <circle cx="256" cy="154" r="54" fill="#FFC107"/>
  <path d="M186 246C186 221.699 205.699 202 230 202H282C306.301 202 326 221.699 326 246V284H186V246Z" fill="#FFD25A"/>
  <path d="M226 278H286L320 418H192L226 278Z" fill="#FFB300"/>
  <path d="M318 226L386 158" stroke="#FFE28A" stroke-width="24" stroke-linecap="round"/>
  <path d="M345 118C345 103.641 356.641 92 371 92C385.359 92 397 103.641 397 118" stroke="#FFC107" stroke-width="16" stroke-linecap="round"/>
  <circle cx="371" cy="118" r="18" fill="#FFF3C4"/>
  <path d="M162 364C162 330.863 188.863 304 222 304H290C323.137 304 350 330.863 350 364V420H162V364Z" fill="#0B1220" fill-opacity="0.36"/>
  <circle cx="150" cy="138" r="34" fill="#FFE9A6" fill-opacity="0.18"/>
  <circle cx="392" cy="350" r="42" fill="#FFE9A6" fill-opacity="0.12"/>
  <defs>
    <radialGradient id="bg" cx="0" cy="0" r="1" gradientUnits="userSpaceOnUse" gradientTransform="translate(256 148) rotate(90) scale(324)">
      <stop stop-color="#22314D"/>
      <stop offset="1" stop-color="#121C2E"/>
    </radialGradient>
  </defs>
</svg>
